<svg xmlns="http://www.w3.org/2000/svg" width="221.959" height="174.25" viewBox="0 0 221.959 174.25">
  <g id="multimedias" transform="translate(0 -55.032)">
    <g id="Group_391" data-name="Group 391" transform="translate(0 55.032)">
      <g id="Group_390" data-name="Group 390">
        <path id="Path_572" data-name="Path 572" d="M184.932,112.766A76.29,76.29,0,0,0,34.849,125.8a41.613,41.613,0,0,0,6.935,82.671H76.461V194.6H41.784a27.742,27.742,0,0,1,0-55.484,6.935,6.935,0,0,0,6.935-6.935,62.419,62.419,0,0,1,123.66-12.137,6.936,6.936,0,0,0,5.9,5.548,34.677,34.677,0,0,1-4.716,69.008H145.816v13.871h27.742a48.548,48.548,0,0,0,11.374-95.709Z" transform="translate(0 -55.032)" fill="#1a74ef"/>
        <path id="Path_573" data-name="Path 573" d="M208.777,251.028,181.035,278.77l9.779,9.779,15.952-15.882v66.511h13.871V272.667l15.882,15.882,9.779-9.779-27.742-27.742A6.935,6.935,0,0,0,208.777,251.028Z" transform="translate(-102.562 -164.927)" fill="#1a74ef"/>
      </g>
    </g>
  </g>
</svg>
